<?xml version="1.0" encoding="utf-8"?>
<!-- Generator: Adobe Illustrator 26.0.3, SVG Export Plug-In . SVG Version: 6.00 Build 0)  -->
<svg version="1.1" id="Design" xmlns="http://www.w3.org/2000/svg" xmlns:xlink="http://www.w3.org/1999/xlink" x="0px" y="0px"
	 viewBox="0 0 72 72" style="enable-background:new 0 0 72 72;" xml:space="preserve">
<style type="text/css">
	.st0{fill:url(#SVGID_1_);}
	.st1{fill:url(#SVGID_00000104690615482465939640000011157812297546898316_);}
</style>
<g>
	<linearGradient id="SVGID_1_" gradientUnits="userSpaceOnUse" x1="12.034" y1="48.9974" x2="68" y2="48.9974">
		<stop  offset="0" style="stop-color:#00ADDC"/>
		<stop  offset="1" style="stop-color:#25DEFF"/>
	</linearGradient>
	<path class="st0" d="M68,42.2c-0.1,0.5-0.2,1-0.3,1.4c-1.4,5.6-6.1,9.3-11.9,9.3c-9,0-17.9,0-26.9,0c-0.2,0-0.5,0-0.8,0
		c0,2.6,0,5.2,0,8c-5.4-4-10.6-8-16-12c5.3-4,10.6-8,16-12c0,2.7,0,5.3,0,8c0.3,0,0.5,0,0.7,0c9,0,17.9,0,26.9,0
		c2.8,0,4.4-1.6,4.4-4.4c0-1.2,0-2.3,0-3.6c2.7,0,5.3,0,8,0C68,38.7,68,40.5,68,42.2z"/>
	
		<linearGradient id="SVGID_00000001633865948356034390000014311306045902155702_" gradientUnits="userSpaceOnUse" x1="3.9927" y1="22.995" x2="59.9862" y2="22.995">
		<stop  offset="0" style="stop-color:#003348"/>
		<stop  offset="1" style="stop-color:#006382"/>
	</linearGradient>
	<path style="fill:url(#SVGID_00000001633865948356034390000014311306045902155702_);" d="M44,35c0-2.7,0-5.3,0-8
		c-0.3,0-0.5,0-0.7,0c-9,0-17.9,0-26.9,0c-2.7,0-4.4,1.7-4.4,4.4c0,1.2,0,2.3,0,3.5c-2.7,0-5.3,0-7.9,0c-0.4-4.8,0-9.5,4-12.9
		c2.1-1.8,4.5-2.8,7.2-3c0.4,0,0.8,0,1.2,0c8.9,0,17.8,0,26.7,0c0.2,0,0.5,0,0.8,0c0-2.7,0-5.3,0-8c5.4,4,10.6,8,16,12
		C54.7,27,49.4,31,44,35z"/>
</g>
</svg>
