<?xml version="1.0" encoding="utf-8"?>
<!-- Generator: Adobe Illustrator 26.0.3, SVG Export Plug-In . SVG Version: 6.00 Build 0)  -->
<svg version="1.1" id="Design" xmlns="http://www.w3.org/2000/svg" xmlns:xlink="http://www.w3.org/1999/xlink" x="0px" y="0px"
	 viewBox="0 0 72 72" style="enable-background:new 0 0 72 72;" xml:space="preserve">
<style type="text/css">
	.st0{fill:url(#SVGID_1_);}
	.st1{fill:url(#SVGID_00000060005448191554331060000001576882071019477633_);}
	.st2{fill:url(#SVGID_00000160169577179818372960000011345291772829828229_);}
	.st3{fill:url(#SVGID_00000144303458334108665260000014916356662037682862_);}
</style>
<g>
	<linearGradient id="SVGID_1_" gradientUnits="userSpaceOnUse" x1="2.1583" y1="35.9617" x2="69.8418" y2="35.9617">
		<stop  offset="0" style="stop-color:#00ADDC"/>
		<stop  offset="1" style="stop-color:#25DEFF"/>
	</linearGradient>
	<path class="st0" d="M61.3,45.7c-1.9-1.9-3.8-3.8-5.6-5.6c-0.1-0.1-0.1-0.4-0.1-0.6c0.4-2.5,0.4-5-0.1-7.4c-1-4.8-3.4-8.8-7.3-11.8
		c-4.1-3.2-8.8-4.5-14-4.1c-4.2,0.3-7.9,1.9-11,4.6c-3.6,3-5.9,6.9-6.7,11.5C15.2,39,17.1,45,21.9,50c3.2,3.3,7.1,5.1,11.6,5.7
		c1.8,0.2,3.6,0.2,5.4,0c0.2,0,0.5,0,0.6,0.2c1.8,1.8,3.6,3.6,5.4,5.4c0,0,0.1,0.1,0.1,0.2c-0.8,0.2-1.5,0.5-2.2,0.7
		c-0.3,0.1-0.5,0.2-0.6,0.6c-0.2,1.8-0.5,3.6-0.8,5.3c-0.2,1.1-0.8,1.7-2,1.7c-2.3,0-4.6,0-6.9,0c-1.1,0-1.8-0.6-1.9-1.7
		c-0.3-1.8-0.6-3.6-0.8-5.4c-0.1-0.4-0.2-0.5-0.5-0.6c-2.4-0.6-4.8-1.6-6.9-2.9c-0.3-0.2-0.5-0.1-0.8,0.1c-1.5,1.1-3,2.2-4.5,3.3
		c-1.1,0.8-1.9,0.7-2.9-0.2c-1.5-1.5-3.1-3.1-4.6-4.6c-0.9-0.9-1-1.7-0.2-2.8c1.1-1.5,2.1-3,3.2-4.4c0.2-0.3,0.3-0.5,0.1-0.9
		c-1.3-2.1-2.2-4.4-2.8-6.9c-0.1-0.4-0.2-0.5-0.6-0.6c-1.8-0.2-3.6-0.5-5.3-0.8c-1.1-0.2-1.7-0.8-1.7-2c0-2.3,0-4.5,0-6.8
		c0-1.2,0.6-1.9,1.8-2.1c1.8-0.3,3.6-0.5,5.3-0.9c0.2,0,0.4-0.2,0.5-0.4c0.7-2.5,1.7-4.9,3-7.1c0.1-0.2,0-0.5-0.1-0.7
		c-1.1-1.5-2.2-3-3.3-4.5c-0.8-1.1-0.7-1.9,0.2-2.8c1.6-1.6,3.1-3.1,4.7-4.7C15.1,8.6,16,8.6,17,9.3c1.5,1.1,3,2.2,4.5,3.3
		c0.3,0.2,0.5,0.3,0.9,0.1c2.1-1.3,4.4-2.2,6.9-2.8c0.3-0.1,0.5-0.2,0.5-0.6c0.3-1.8,0.5-3.6,0.8-5.4c0.2-1.1,0.8-1.7,1.9-1.7
		c2.3,0,4.7,0,7,0c1.1,0,1.7,0.6,1.9,1.7c0.3,1.8,0.6,3.6,0.8,5.3c0.1,0.4,0.2,0.5,0.6,0.6c2.4,0.6,4.7,1.6,6.9,2.9
		c0.3,0.2,0.5,0.2,0.7,0c1.5-1.1,3-2.2,4.5-3.3c1.1-0.8,1.9-0.7,2.8,0.2c1.5,1.5,3.1,3.1,4.6,4.6c0.9,0.9,1,1.7,0.2,2.8
		c-1.1,1.5-2.2,3-3.3,4.5c-0.2,0.3-0.3,0.5-0.1,0.8c1.3,2.2,2.2,4.5,2.9,6.9c0.1,0.3,0.2,0.5,0.6,0.5c1.8,0.3,3.6,0.5,5.3,0.8
		c1.1,0.2,1.7,0.8,1.7,2c0,2.2,0,4.5,0,6.7c0,1.3-0.6,1.9-1.8,2.1c-1.8,0.3-3.5,0.6-5.3,0.8c-0.4,0.1-0.5,0.2-0.5,0.5
		C61.9,43.7,61.6,44.6,61.3,45.7z"/>
	
		<linearGradient id="SVGID_00000045611045862470181070000003110317211963066288_" gradientUnits="userSpaceOnUse" x1="23.5929" y1="43.7153" x2="63.1479" y2="43.7153">
		<stop  offset="0" style="stop-color:#006382"/>
		<stop  offset="1" style="stop-color:#00ADDC"/>
	</linearGradient>
	<path style="fill:url(#SVGID_00000045611045862470181070000003110317211963066288_);" d="M48.6,36.5c-0.1,0.7-0.1,1.4-0.3,2.1
		c-0.1,0.4,0,0.7,0.3,1c4.1,4.1,8.3,8.2,12.4,12.4c2.3,2.3,2.8,5.5,1.2,8.3c-2.1,3.6-7,4.4-10.1,1.7c-0.2-0.2-0.4-0.4-0.7-0.6
		c-4.1-4.1-8.2-8.2-12.2-12.3c-0.3-0.3-0.6-0.4-1-0.3c-6.6,1.2-12.9-3-14.3-9.6c-0.5-2.1-0.4-4.3,0.3-6.4c0.2-0.8,0.6-0.9,1.2-0.3
		c2.3,2.3,4.6,4.6,6.9,6.9c1.5,1.5,2.9,1.5,4.4,0c0.8-0.9,1.7-1.7,2.5-2.6c1.3-1.3,1.3-2.8,0-4c-2.3-2.3-4.7-4.7-7-7
		c-0.7-0.7-0.6-1.1,0.3-1.3c4.6-1.2,8.7-0.3,12.1,3C47.2,29.7,48.6,33.2,48.6,36.5z"/>
</g>
<linearGradient id="SVGID_00000167374440799730732180000008962475531715514524_" gradientUnits="userSpaceOnUse" x1="-97.0558" y1="35.9617" x2="-29.3723" y2="35.9617">
	<stop  offset="0" style="stop-color:#00ADDC"/>
	<stop  offset="1" style="stop-color:#25DEFF"/>
</linearGradient>
<path style="fill:url(#SVGID_00000167374440799730732180000008962475531715514524_);" d="M-37.9,45.7c-1.9-1.9-3.8-3.8-5.6-5.6
	c-0.1-0.1-0.1-0.4-0.1-0.6c0.4-2.5,0.4-5-0.1-7.4c-1-4.8-3.4-8.8-7.3-11.8c-4.1-3.2-8.8-4.5-14-4.1c-4.2,0.3-7.9,1.9-11,4.6
	c-3.6,3-5.9,6.9-6.7,11.5C-84,39-82.2,45-77.3,50c3.2,3.3,7.1,5.1,11.6,5.7c1.8,0.2,3.6,0.2,5.4,0c0.2,0,0.5,0,0.6,0.2
	c1.8,1.8,3.6,3.6,5.4,5.4c0,0,0.1,0.1,0.1,0.2c-0.8,0.2-1.5,0.5-2.2,0.7c-0.3,0.1-0.5,0.2-0.6,0.6c-0.2,1.8-0.5,3.6-0.8,5.3
	c-0.2,1.1-0.8,1.7-2,1.7c-2.3,0-4.6,0-6.9,0c-1.1,0-1.8-0.6-1.9-1.7c-0.3-1.8-0.6-3.6-0.8-5.4c-0.1-0.4-0.2-0.5-0.5-0.6
	c-2.4-0.6-4.8-1.6-6.9-2.9c-0.3-0.2-0.5-0.1-0.8,0.1c-1.5,1.1-3,2.2-4.5,3.3c-1.1,0.8-1.9,0.7-2.9-0.2c-1.5-1.5-3.1-3.1-4.6-4.6
	c-0.9-0.9-1-1.7-0.2-2.8c1.1-1.5,2.1-3,3.2-4.4c0.2-0.3,0.3-0.5,0.1-0.9c-1.3-2.1-2.2-4.4-2.8-6.9c-0.1-0.4-0.2-0.5-0.6-0.6
	c-1.8-0.2-3.6-0.5-5.3-0.8c-1.1-0.2-1.7-0.8-1.7-2c0-2.3,0-4.5,0-6.8c0-1.2,0.6-1.9,1.8-2.1c1.8-0.3,3.6-0.5,5.3-0.9
	c0.2,0,0.4-0.2,0.5-0.4c0.7-2.5,1.7-4.9,3-7.1c0.1-0.2,0-0.5-0.1-0.7c-1.1-1.5-2.2-3-3.3-4.5c-0.8-1.1-0.7-1.9,0.2-2.8
	c1.6-1.6,3.1-3.1,4.7-4.7c0.9-0.9,1.7-0.9,2.7-0.2c1.5,1.1,3,2.2,4.5,3.3c0.3,0.2,0.5,0.3,0.9,0.1c2.1-1.3,4.4-2.2,6.9-2.8
	c0.3-0.1,0.5-0.2,0.5-0.6c0.3-1.8,0.5-3.6,0.8-5.4c0.2-1.1,0.8-1.7,1.9-1.7c2.3,0,4.7,0,7,0c1.1,0,1.7,0.6,1.9,1.7
	c0.3,1.8,0.6,3.6,0.8,5.3c0.1,0.4,0.2,0.5,0.6,0.6c2.4,0.6,4.7,1.6,6.9,2.9c0.3,0.2,0.5,0.2,0.7,0c1.5-1.1,3-2.2,4.5-3.3
	c1.1-0.8,1.9-0.7,2.8,0.2c1.5,1.5,3.1,3.1,4.6,4.6c0.9,0.9,1,1.7,0.2,2.8c-1.1,1.5-2.2,3-3.3,4.5c-0.2,0.3-0.3,0.5-0.1,0.8
	c1.3,2.2,2.2,4.5,2.9,6.9c0.1,0.3,0.2,0.5,0.6,0.5c1.8,0.3,3.6,0.5,5.3,0.8c1.1,0.2,1.7,0.8,1.7,2c0,2.2,0,4.5,0,6.7
	c0,1.3-0.6,1.9-1.8,2.1c-1.8,0.3-3.5,0.6-5.3,0.8c-0.4,0.1-0.5,0.2-0.5,0.5C-37.3,43.7-37.6,44.6-37.9,45.7z"/>
<linearGradient id="SVGID_00000027596402344417776590000011512555033454926464_" gradientUnits="userSpaceOnUse" x1="-75.6212" y1="43.7153" x2="-36.0662" y2="43.7153">
	<stop  offset="0" style="stop-color:#006382"/>
	<stop  offset="1" style="stop-color:#00ADDC"/>
</linearGradient>
<path style="fill:url(#SVGID_00000027596402344417776590000011512555033454926464_);" d="M-50.6,36.5c-0.1,0.7-0.1,1.4-0.3,2.1
	c-0.1,0.4,0,0.7,0.3,1c4.1,4.1,8.3,8.2,12.4,12.4c2.3,2.3,2.8,5.5,1.2,8.3c-2.1,3.6-7,4.4-10.1,1.7c-0.2-0.2-0.4-0.4-0.7-0.6
	c-4.1-4.1-8.2-8.2-12.2-12.3c-0.3-0.3-0.6-0.4-1-0.3c-6.6,1.2-12.9-3-14.3-9.6c-0.5-2.1-0.4-4.3,0.3-6.4c0.2-0.8,0.6-0.9,1.2-0.3
	c2.3,2.3,4.6,4.6,6.9,6.9c1.5,1.5,2.9,1.5,4.4,0c0.8-0.9,1.7-1.7,2.5-2.6c1.3-1.3,1.3-2.8,0-4c-2.3-2.3-4.7-4.7-7-7
	c-0.7-0.7-0.6-1.1,0.3-1.3c4.6-1.2,8.7-0.3,12.1,3C-52.1,29.7-50.6,33.2-50.6,36.5z"/>
</svg>
