<?xml version="1.0" encoding="utf-8"?>
<!-- Generator: Adobe Illustrator 26.0.3, SVG Export Plug-In . SVG Version: 6.00 Build 0)  -->
<svg version="1.1" id="Design" xmlns="http://www.w3.org/2000/svg" xmlns:xlink="http://www.w3.org/1999/xlink" x="0px" y="0px"
	 viewBox="0 0 72 72" style="enable-background:new 0 0 72 72;" xml:space="preserve">
<style type="text/css">
	.st0{fill:url(#SVGID_1_);}
	.st1{fill:url(#SVGID_00000107552796219836983830000003044745706126448029_);}
	.st2{fill:url(#SVGID_00000109731691944253260820000007397050938989100435_);}
	.st3{fill:url(#SVGID_00000023251589104170454860000009900279081781867392_);}
	.st4{fill:url(#SVGID_00000024693996630209958000000007549328637205180093_);}
	.st5{fill:url(#SVGID_00000133490064519042685050000010591910813214157238_);}
	.st6{fill:url(#SVGID_00000009554264494879256070000006380054431368152764_);}
</style>
<g>
	<linearGradient id="SVGID_1_" gradientUnits="userSpaceOnUse" x1="24.0168" y1="22.3955" x2="43.6165" y2="45.0798">
		<stop  offset="0" style="stop-color:#003348"/>
		<stop  offset="1" style="stop-color:#006382"/>
	</linearGradient>
	<circle class="st0" cx="36.1" cy="36.4" r="20.2"/>
	<g>
		
			<linearGradient id="SVGID_00000142880996400992476330000016287161836369557438_" gradientUnits="userSpaceOnUse" x1="2" y1="12.0663" x2="21.8529" y2="12.0663">
			<stop  offset="0" style="stop-color:#00ADDC"/>
			<stop  offset="1" style="stop-color:#25DEFF"/>
		</linearGradient>
		<path style="fill:url(#SVGID_00000142880996400992476330000016287161836369557438_);" d="M21.9,2.1c0,1.3,0,2.6,0,4
			c-5.3,0-10.6,0-15.9,0C6,11.4,6,16.7,6,22c-1.4,0-2.7,0-4,0C2,15.4,2,8.8,2,2.1C8.6,2.1,15.2,2.1,21.9,2.1z"/>
		
			<linearGradient id="SVGID_00000133506205645943407050000002945112916251990719_" gradientUnits="userSpaceOnUse" x1="49.9116" y1="12.0663" x2="69.7645" y2="12.0663">
			<stop  offset="0" style="stop-color:#00ADDC"/>
			<stop  offset="1" style="stop-color:#25DEFF"/>
		</linearGradient>
		<path style="fill:url(#SVGID_00000133506205645943407050000002945112916251990719_);" d="M69.8,22c-1.3,0-2.6,0-4,0
			c0-5.3,0-10.6,0-15.9c-5.3,0-10.6,0-15.9,0c0-1.4,0-2.7,0-4c6.6,0,13.2,0,19.9,0C69.8,8.8,69.8,15.4,69.8,22z"/>
		
			<linearGradient id="SVGID_00000177453563258952096530000010210189211040194228_" gradientUnits="userSpaceOnUse" x1="2" y1="59.978" x2="21.8529" y2="59.978">
			<stop  offset="0" style="stop-color:#00ADDC"/>
			<stop  offset="1" style="stop-color:#25DEFF"/>
		</linearGradient>
		<path style="fill:url(#SVGID_00000177453563258952096530000010210189211040194228_);" d="M2,50.1c1.3,0,2.6,0,4,0
			c0,5.3,0,10.6,0,15.9c5.3,0,10.6,0,15.9,0c0,1.4,0,2.7,0,4c-6.6,0-13.2,0-19.9,0C2,63.3,2,56.7,2,50.1z"/>
		
			<linearGradient id="SVGID_00000131325964818983393370000001831464605919692956_" gradientUnits="userSpaceOnUse" x1="49.9116" y1="59.978" x2="69.7645" y2="59.978">
			<stop  offset="0" style="stop-color:#00ADDC"/>
			<stop  offset="1" style="stop-color:#25DEFF"/>
		</linearGradient>
		<path style="fill:url(#SVGID_00000131325964818983393370000001831464605919692956_);" d="M49.9,69.9c0-1.3,0-2.6,0-4
			c5.3,0,10.6,0,15.9,0c0-5.3,0-10.6,0-15.9c1.4,0,2.7,0,4,0c0,6.6,0,13.2,0,19.9C63.1,69.9,56.5,69.9,49.9,69.9z"/>
		
			<linearGradient id="SVGID_00000161618675482562561060000011949259216361178511_" gradientUnits="userSpaceOnUse" x1="10.1163" y1="36.0222" x2="61.6482" y2="36.0222">
			<stop  offset="0" style="stop-color:#00ADDC"/>
			<stop  offset="1" style="stop-color:#25DEFF"/>
		</linearGradient>
		<path style="fill:url(#SVGID_00000161618675482562561060000011949259216361178511_);" d="M33.9,57.9C22.6,55.9,16,49.4,14,38
			c-1.2,0-2.6,0-3.9,0c0-1.3,0-2.6,0-4c1.3,0,2.6,0,3.9,0c1.9-11.3,8.5-17.9,19.8-19.9c0-1.2,0-2.5,0-3.9c1.3,0,2.6,0,4,0
			c0,1.3,0,2.6,0,3.9c11.4,1.9,17.9,8.5,19.9,19.9c1.2,0,2.6,0,3.9,0c0,1.3,0,2.6,0,4c-1.3,0-2.6,0-3.9,0
			c-1.9,11.3-8.5,17.9-19.9,19.9c0,0.5,0,1.2,0,1.9c0,0.7,0,1.3,0,2c-1.3,0-2.6,0-4,0C33.9,60.5,33.9,59.1,33.9,57.9z M35.9,26.1
			c-5.5,0-9.9,4.5-9.9,10c0,5.4,4.5,9.9,9.9,9.9c5.5,0,9.9-4.5,9.9-9.9C45.8,30.5,41.3,26.1,35.9,26.1z M22.2,34
			c0.5-3,1.8-5.6,3.9-7.8c2.2-2.1,4.8-3.4,7.7-3.9c0-1.3,0-2.6,0-3.9c-8.6,0.7-15.2,8.4-15.5,15.6C19.6,34,20.9,34,22.2,34z
			 M37.9,22.3c6.5,1.4,10.4,5.3,11.7,11.7c1.3,0,2.6,0,3.9,0c-0.8-8.5-8.1-15-15.6-15.5C37.9,19.7,37.9,21,37.9,22.3z M18.3,38
			c0.8,8.4,8,15,15.6,15.6c0-1.3,0-2.6,0-3.8c-6.5-1.4-10.4-5.3-11.7-11.7C20.9,38,19.6,38,18.3,38z M49.6,38
			c-1.4,6.5-5.3,10.4-11.7,11.7c0,1.3,0,2.6,0,3.9c8.6-0.8,15-8.2,15.5-15.6C52.2,38,50.9,38,49.6,38z"/>
		
			<linearGradient id="SVGID_00000125568953344929566100000017368100540390411909_" gradientUnits="userSpaceOnUse" x1="39.5639" y1="38.4897" x2="32.1747" y2="33.5335">
			<stop  offset="0.1741" style="stop-color:#ABF0FF"/>
			<stop  offset="1" style="stop-color:#E9F5FB"/>
		</linearGradient>
		<path style="fill:url(#SVGID_00000125568953344929566100000017368100540390411909_);" d="M37.8,34.1c0,1.3,0,2.6,0,3.9
			c-1.3,0-2.6,0-3.9,0c0-1.3,0-2.6,0-3.9C35.2,34.1,36.5,34.1,37.8,34.1z"/>
	</g>
</g>
</svg>
