<?xml version="1.0" encoding="utf-8"?>
<!-- Generator: Adobe Illustrator 26.0.3, SVG Export Plug-In . SVG Version: 6.00 Build 0)  -->
<svg version="1.1" id="Design" xmlns="http://www.w3.org/2000/svg" xmlns:xlink="http://www.w3.org/1999/xlink" x="0px" y="0px"
	 viewBox="0 0 72 72" style="enable-background:new 0 0 72 72;" xml:space="preserve">
<style type="text/css">
	.st0{fill:url(#SVGID_1_);}
	.st1{fill:url(#SVGID_00000054952990898346097200000004593753525881664176_);}
	.st2{fill:url(#SVGID_00000001638347075678871600000012369120713458894237_);}
	.st3{fill:url(#SVGID_00000052080863349084933400000011871443938373158540_);}
	.st4{fill:url(#SVGID_00000033355000299920799580000018192586975686577554_);}
	.st5{fill:url(#SVGID_00000110455420257671940940000002573331825897766828_);}
	.st6{fill:url(#SVGID_00000085932826391886997050000006927705421831334544_);}
	.st7{fill:url(#SVGID_00000168832312479260160080000004919806937157567125_);}
	.st8{fill:url(#SVGID_00000102519046023044696370000010586830550425838751_);}
	.st9{fill:url(#SVGID_00000155826676184936817820000001906708518347753405_);}
	.st10{fill:url(#SVGID_00000034060480020805947480000004636249955699948682_);}
	.st11{fill:url(#SVGID_00000153696767625112170780000002924785184805457315_);}
	.st12{fill:url(#SVGID_00000034080159791305743720000006108056976962778255_);}
	.st13{fill:url(#SVGID_00000150066952080284558980000013326027097823661713_);}
	.st14{fill:url(#SVGID_00000160156511341216581240000006988764769981408396_);}
</style>
<g>
	<linearGradient id="SVGID_1_" gradientUnits="userSpaceOnUse" x1="57.8349" y1="63.8541" x2="69.9152" y2="63.8541">
		<stop  offset="0" style="stop-color:#006382"/>
		<stop  offset="1" style="stop-color:#00ADDC"/>
	</linearGradient>
	<path class="st0" d="M63.2,69.9c-1.2-0.3-2.3-0.7-3.2-1.4c-1.9-1.6-2.6-4.4-1.7-6.9c0.9-2.3,3.3-3.9,5.8-3.8c3,0.1,5.3,2.1,5.8,5.1
		c0,0.1,0.1,0.2,0.1,0.2c0,0.4,0,0.9,0,1.3c0,0.1-0.1,0.2-0.1,0.4c-0.3,1.5-1,2.7-2.1,3.7c-0.9,0.8-2,1.1-3.2,1.4
		C64,69.9,63.6,69.9,63.2,69.9z"/>
	
		<linearGradient id="SVGID_00000070099343052982460690000006439498593082641841_" gradientUnits="userSpaceOnUse" x1="17.834" y1="21.4726" x2="54.1713" y2="21.4726">
		<stop  offset="0" style="stop-color:#00ADDC"/>
		<stop  offset="1" style="stop-color:#25DEFF"/>
	</linearGradient>
	<path style="fill:url(#SVGID_00000070099343052982460690000006439498593082641841_);" d="M34.8,27.5c0.9,0,1.6,0,2.4,0
		c0-3,0-6.1,0-9.1c0-3,0-6,0-9c5.7,0,11.3,0,17,0c0,0.2,0,0.5,0,0.7c0,5.4,0,10.7,0,16.1c0,0.5-0.1,0.8-0.5,1.1
		c-1.9,2-3.8,3.9-5.7,5.9c-0.2,0.2-0.6,0.4-1,0.4c-7.4,0-14.7,0-22.1,0c-0.3,0-0.7-0.2-1-0.4c-1.9-1.9-3.9-3.8-5.8-5.8
		c-0.2-0.2-0.4-0.5-0.4-0.8c0-5.6,0-11.3,0-16.9c0-0.1,0-0.2,0-0.3c5.6,0,11.2,0,16.9,0C34.8,15.4,34.8,21.4,34.8,27.5z"/>
	
		<linearGradient id="SVGID_00000019642521517777234790000009717089216480826498_" gradientUnits="userSpaceOnUse" x1="23.8963" y1="52.9411" x2="48.0977" y2="52.9411">
		<stop  offset="0" style="stop-color:#006382"/>
		<stop  offset="1" style="stop-color:#00ADDC"/>
	</linearGradient>
	<path style="fill:url(#SVGID_00000019642521517777234790000009717089216480826498_);" d="M36,40.8c6.7,0,12.1,5.4,12.1,12.1
		c0,6.7-5.5,12.1-12.1,12.1c-6.7,0-12.1-5.5-12.1-12.2C24,46.1,29.4,40.8,36,40.8z M37.2,45.7c-0.8,0-1.6,0-2.4,0
		c0,0.4,0,0.8-0.1,1.1c-0.4,0-0.8,0-1.1,0.1c0,0.8,0,1.6,0,2.4c0.4,0,0.8,0.1,1.2,0.1c0,4,0,8,0,12c0.8,0,1.6,0,2.4,0
		C37.2,56.2,37.2,51,37.2,45.7z"/>
	
		<linearGradient id="SVGID_00000179609130154413774470000002197855247953877143_" gradientUnits="userSpaceOnUse" x1="2.0848" y1="44.4623" x2="14.1735" y2="44.4623">
		<stop  offset="0" style="stop-color:#006382"/>
		<stop  offset="1" style="stop-color:#00ADDC"/>
	</linearGradient>
	<path style="fill:url(#SVGID_00000179609130154413774470000002197855247953877143_);" d="M14.2,44.5c0,3.3-2.8,6.1-6.1,6.1
		c-3.3-0.1-6-2.8-6-6.1c0-3.3,2.8-6.1,6.1-6.1C11.5,38.5,14.2,41.2,14.2,44.5z"/>
	
		<linearGradient id="SVGID_00000020385389608204000800000012599635754097223049_" gradientUnits="userSpaceOnUse" x1="17.8651" y1="4.4813" x2="34.7598" y2="4.4813">
		<stop  offset="0" style="stop-color:#00ADDC"/>
		<stop  offset="1" style="stop-color:#25DEFF"/>
	</linearGradient>
	<path style="fill:url(#SVGID_00000020385389608204000800000012599635754097223049_);" d="M17.9,6.9c0-1.6,0-3.2,0-4.8
		c5.6,0,11.3,0,16.9,0c0,1.6,0,3.2,0,4.8C29.1,6.9,23.5,6.9,17.9,6.9z"/>
	
		<linearGradient id="SVGID_00000163040008803833189320000014870661007564584584_" gradientUnits="userSpaceOnUse" x1="37.2394" y1="4.4963" x2="54.1132" y2="4.4963">
		<stop  offset="0" style="stop-color:#00ADDC"/>
		<stop  offset="1" style="stop-color:#25DEFF"/>
	</linearGradient>
	<path style="fill:url(#SVGID_00000163040008803833189320000014870661007564584584_);" d="M54.1,6.9c-5.7,0-11.2,0-16.9,0
		c0-1.6,0-3.2,0-4.8c5.6,0,11.2,0,16.9,0C54.1,3.7,54.1,5.3,54.1,6.9z"/>
	
		<linearGradient id="SVGID_00000096023111010668032260000004355880887188335007_" gradientUnits="userSpaceOnUse" x1="25.0269" y1="38.9114" x2="34.7539" y2="38.9114">
		<stop  offset="0" style="stop-color:#00ADDC"/>
		<stop  offset="1" style="stop-color:#25DEFF"/>
	</linearGradient>
	<path style="fill:url(#SVGID_00000096023111010668032260000004355880887188335007_);" d="M34.8,36.1c0,0.8,0,1.6,0,2.4
		c-3,0.3-5.7,1.4-8,3.3c-0.6-0.6-1.1-1.1-1.7-1.7C27.8,37.7,31,36.4,34.8,36.1z"/>
	
		<linearGradient id="SVGID_00000079485318349025828250000015775900696458165639_" gradientUnits="userSpaceOnUse" x1="37.2322" y1="38.8612" x2="47.0319" y2="38.8612">
		<stop  offset="0" style="stop-color:#00ADDC"/>
		<stop  offset="1" style="stop-color:#25DEFF"/>
	</linearGradient>
	<path style="fill:url(#SVGID_00000079485318349025828250000015775900696458165639_);" d="M37.2,38.3c0-0.6,0-1.4,0-2.2
		c3.7,0.3,7,1.6,9.8,4c-0.6,0.5-1.1,1.1-1.7,1.5c-1.2-0.7-2.5-1.5-3.8-2.1C40.2,39,38.7,38.7,37.2,38.3z"/>
	
		<linearGradient id="SVGID_00000013909956581832441700000006009141944261906837_" gradientUnits="userSpaceOnUse" x1="19.1216" y1="46.7966" x2="24.7581" y2="46.7966">
		<stop  offset="0" style="stop-color:#00ADDC"/>
		<stop  offset="1" style="stop-color:#25DEFF"/>
	</linearGradient>
	<path style="fill:url(#SVGID_00000013909956581832441700000006009141944261906837_);" d="M21.4,51.7c-0.6,0-1.4,0-2.2,0
		c0.3-3.7,1.7-7,4.1-9.8c0.6,0.6,1.1,1.1,1.6,1.6c-0.7,1.3-1.6,2.6-2.1,3.9C22,48.8,21.8,50.2,21.4,51.7z"/>
	
		<linearGradient id="SVGID_00000093880096355377773700000015406507567263207560_" gradientUnits="userSpaceOnUse" x1="47.107" y1="46.8083" x2="52.8769" y2="46.8083">
		<stop  offset="0" style="stop-color:#00ADDC"/>
		<stop  offset="1" style="stop-color:#25DEFF"/>
	</linearGradient>
	<path style="fill:url(#SVGID_00000093880096355377773700000015406507567263207560_);" d="M52.9,51.7c-0.9,0-1.6,0-2.4,0
		c-0.3-3-1.4-5.8-3.4-8.1c0.6-0.6,1.1-1.1,1.7-1.7C51.2,44.7,52.6,47.9,52.9,51.7z"/>
	
		<linearGradient id="SVGID_00000159431844779794695750000000441842062131587461_" gradientUnits="userSpaceOnUse" x1="19.1174" y1="59.0611" x2="24.8316" y2="59.0611">
		<stop  offset="0" style="stop-color:#00ADDC"/>
		<stop  offset="1" style="stop-color:#25DEFF"/>
	</linearGradient>
	<path style="fill:url(#SVGID_00000159431844779794695750000000441842062131587461_);" d="M21.5,54.2c0.8,4.3,1,4.7,3.3,8.1
		c-0.6,0.5-1.1,1.1-1.7,1.7c-2.3-2.7-3.7-6-4-9.7C19.9,54.2,20.7,54.2,21.5,54.2z"/>
	
		<linearGradient id="SVGID_00000091711491589266942690000008708450235647863227_" gradientUnits="userSpaceOnUse" x1="47.146" y1="59.0864" x2="52.8745" y2="59.0864">
		<stop  offset="0" style="stop-color:#00ADDC"/>
		<stop  offset="1" style="stop-color:#25DEFF"/>
	</linearGradient>
	<path style="fill:url(#SVGID_00000091711491589266942690000008708450235647863227_);" d="M50.5,54.2c0.8,0,1.6,0,2.4,0
		c-0.3,3.7-1.7,7-4.1,9.8c-0.6-0.6-1.1-1.1-1.7-1.7C49.8,57.9,50,57.6,50.5,54.2z"/>
	
		<linearGradient id="SVGID_00000148658538400330912960000002076271703042049203_" gradientUnits="userSpaceOnUse" x1="24.9508" y1="66.9787" x2="34.7656" y2="66.9787">
		<stop  offset="0" style="stop-color:#00ADDC"/>
		<stop  offset="1" style="stop-color:#25DEFF"/>
	</linearGradient>
	<path style="fill:url(#SVGID_00000148658538400330912960000002076271703042049203_);" d="M34.8,67.4c0,0.8,0,1.6,0,2.4
		c-3.7-0.3-7-1.6-9.8-4c0.6-0.5,1.2-1.1,1.8-1.6C29,66,31.7,67.1,34.8,67.4z"/>
	
		<linearGradient id="SVGID_00000093166158603779589730000000932477922249407160_" gradientUnits="userSpaceOnUse" x1="37.2396" y1="66.9375" x2="47.0446" y2="66.9375">
		<stop  offset="0" style="stop-color:#00ADDC"/>
		<stop  offset="1" style="stop-color:#25DEFF"/>
	</linearGradient>
	<path style="fill:url(#SVGID_00000093166158603779589730000000932477922249407160_);" d="M45.3,64.1c0.6,0.6,1.1,1.1,1.7,1.7
		c-2.8,2.4-6.1,3.8-9.8,4.1c0-0.8,0-1.6,0-2.4C40.3,67.1,43,66,45.3,64.1z"/>
	
		<linearGradient id="SVGID_00000148651015602659573770000005085006753743402145_" gradientUnits="userSpaceOnUse" x1="33.6239" y1="53.5488" x2="37.1686" y2="53.5488">
		<stop  offset="0.1741" style="stop-color:#ABF0FF"/>
		<stop  offset="1" style="stop-color:#E9F5FB"/>
	</linearGradient>
	<path style="fill:url(#SVGID_00000148651015602659573770000005085006753743402145_);" d="M37.2,45.7c0,5.3,0,10.4,0,15.7
		c-0.8,0-1.6,0-2.4,0c0-4,0-8,0-12c-0.4,0-0.8-0.1-1.2-0.1c0-0.8,0-1.5,0-2.4c0.4,0,0.7,0,1.1-0.1c0-0.4,0-0.7,0.1-1.1
		C35.6,45.7,36.4,45.7,37.2,45.7z"/>
</g>
</svg>
