<?xml version="1.0" encoding="utf-8"?>
<!-- Generator: Adobe Illustrator 26.0.3, SVG Export Plug-In . SVG Version: 6.00 Build 0)  -->
<svg version="1.1" id="Design" xmlns="http://www.w3.org/2000/svg" xmlns:xlink="http://www.w3.org/1999/xlink" x="0px" y="0px"
	 viewBox="0 0 72 72" style="enable-background:new 0 0 72 72;" xml:space="preserve">
<style type="text/css">
	.st0{fill:url(#SVGID_1_);}
	.st1{fill:url(#SVGID_00000118369180065050172530000013726117105032713637_);}
	.st2{fill:url(#SVGID_00000090280947614935286720000006756122490987237539_);}
	.st3{fill:url(#SVGID_00000121966273048306597880000001294031570311196854_);}
	.st4{fill:url(#SVGID_00000051380588774195616660000002477418463929608844_);}
</style>
<g>
	<linearGradient id="SVGID_1_" gradientUnits="userSpaceOnUse" x1="2" y1="31.8826" x2="42.0831" y2="31.8826">
		<stop  offset="0" style="stop-color:#00ADDC"/>
		<stop  offset="1" style="stop-color:#25DEFF"/>
	</linearGradient>
	<path class="st0" d="M2,28.4c0.2-1.3,0.4-2.7,0.7-4c1.7-6.3,5.4-11.1,10.9-14.3C22.8,4.8,32,4.8,41.3,9.6c0.2,0.1,0.4,0.2,0.7,0.4
		C41,10.2,40,10.3,39,10.5c-9,1.6-16.3,5.9-21,13.9c-5.2,8.9-5.1,18-0.1,27c0.1,0.2,0.2,0.4,0.3,0.6c0,0-0.1,0-0.1,0
		c-1-0.6-1.9-0.2-2.8,0.3c-3.3,1.7-6.7,3.4-10.1,5.1c-1.3,0.7-2.7,0.1-3-1.3c-0.1-0.4,0-0.9,0.1-1.4c1.2-3.7,2.4-7.5,3.6-11.2
		c0.1-0.4,0.1-0.8-0.2-1.1c-2.1-3.1-3.4-6.6-3.8-10.3C2.1,32,2,31.8,2,31.7C2,30.6,2,29.5,2,28.4z"/>
	
		<linearGradient id="SVGID_00000036233931241536037990000005413348447645678240_" gradientUnits="userSpaceOnUse" x1="18.1745" y1="39.8253" x2="69.8" y2="39.8253">
		<stop  offset="0" style="stop-color:#006382"/>
		<stop  offset="1" style="stop-color:#00ADDC"/>
	</linearGradient>
	<path style="fill:url(#SVGID_00000036233931241536037990000005413348447645678240_);" d="M44.5,14c8.1,0.3,15.3,3.4,20.7,10.2
		c5.9,7.6,6.2,18.1,0.8,26.1c-0.3,0.4-0.3,0.8-0.2,1.3c1.2,3.7,2.4,7.5,3.6,11.2c0.4,1.3-0.1,2.5-1.3,2.8c-0.5,0.1-1.2,0-1.6-0.3
		c-3.6-1.8-7.2-3.6-10.8-5.5c-0.5-0.3-0.9-0.3-1.5-0.1c-9.8,3.5-19,2.4-27.2-4.1c-6-4.8-9-11.2-8.7-18.9c0.3-6.4,3-11.6,7.7-15.9
		C31,16.3,37.1,14.2,44.5,14z M35.9,39.9c1.1,0,2-0.9,2-2c0-1.1-0.9-2-2-2c-1.1,0-2,0.9-2,2C33.9,39,34.8,39.9,35.9,39.9z
		 M45.8,37.9c0-1.1-0.9-2-2-2c-1.1,0-2,0.9-2,1.9c0,1.1,0.9,2,2,2C44.9,39.9,45.8,39,45.8,37.9z M53.8,37.9c0-1.1-0.9-2-2-2
		c-1.1,0-2,0.9-2,2c0,1.1,0.9,2,2,2C52.9,39.8,53.8,38.9,53.8,37.9z"/>
	
		<linearGradient id="SVGID_00000134225473069364415030000005363472239539089074_" gradientUnits="userSpaceOnUse" x1="33.9132" y1="37.8859" x2="37.8807" y2="37.8859">
		<stop  offset="0.1741" style="stop-color:#ABF0FF"/>
		<stop  offset="1" style="stop-color:#E9F5FB"/>
	</linearGradient>
	<path style="fill:url(#SVGID_00000134225473069364415030000005363472239539089074_);" d="M35.9,39.9c-1.1,0-2-0.9-2-2
		c0-1.1,0.9-2,2-2c1.1,0,2,0.9,2,2C37.9,39,37,39.9,35.9,39.9z"/>
	
		<linearGradient id="SVGID_00000176735181942440511700000000388080777501260960_" gradientUnits="userSpaceOnUse" x1="41.8577" y1="37.8858" x2="45.8254" y2="37.8858">
		<stop  offset="0.1741" style="stop-color:#ABF0FF"/>
		<stop  offset="1" style="stop-color:#E9F5FB"/>
	</linearGradient>
	<path style="fill:url(#SVGID_00000176735181942440511700000000388080777501260960_);" d="M45.8,37.9c0,1.1-0.9,2-2,2
		c-1.1,0-2-0.9-2-2c0-1.1,0.9-2,2-1.9C44.9,35.9,45.8,36.8,45.8,37.9z"/>
	
		<linearGradient id="SVGID_00000093168308952379016440000007613847842616235940_" gradientUnits="userSpaceOnUse" x1="49.8028" y1="37.8861" x2="53.7702" y2="37.8861">
		<stop  offset="0.1741" style="stop-color:#ABF0FF"/>
		<stop  offset="1" style="stop-color:#E9F5FB"/>
	</linearGradient>
	<path style="fill:url(#SVGID_00000093168308952379016440000007613847842616235940_);" d="M53.8,37.9c0,1.1-0.9,2-1.9,2
		c-1.1,0-2-0.9-2-2c0-1.1,0.9-2,2-2C52.9,35.9,53.8,36.8,53.8,37.9z"/>
</g>
</svg>
