<?xml version="1.0" encoding="utf-8"?>
<!-- Generator: Adobe Illustrator 26.0.3, SVG Export Plug-In . SVG Version: 6.00 Build 0)  -->
<svg version="1.1" id="Design" xmlns="http://www.w3.org/2000/svg" xmlns:xlink="http://www.w3.org/1999/xlink" x="0px" y="0px"
	 viewBox="0 0 72 72" style="enable-background:new 0 0 72 72;" xml:space="preserve">
<style type="text/css">
	.st0{fill:url(#SVGID_1_);}
	.st1{fill:url(#SVGID_00000128480779976201125220000016594317353926212480_);}
	.st2{fill:url(#SVGID_00000133512362848203485610000002420226713955368333_);}
</style>
<g>
	<linearGradient id="SVGID_1_" gradientUnits="userSpaceOnUse" x1="2.1622" y1="54.9953" x2="11.7642" y2="54.9953">
		<stop  offset="0" style="stop-color:#00ADDC"/>
		<stop  offset="1" style="stop-color:#25DEFF"/>
	</linearGradient>
	<path class="st0" d="M2.2,45.6c0.7,0,1.5-0.1,2.2-0.1c2.2,0,4.5,0,6.7,0c0.4,0,0.7,0,0.7,0.5c0,6,0,12,0,18.1c0,0.1,0,0.2-0.1,0.4
		c-3.2,0-6.3,0-9.5,0C2.2,58.2,2.2,51.9,2.2,45.6z"/>
	
		<linearGradient id="SVGID_00000067206609283839904780000008651595943764541356_" gradientUnits="userSpaceOnUse" x1="16.6214" y1="54.4636" x2="70.0151" y2="54.4636">
		<stop  offset="0" style="stop-color:#00ADDC"/>
		<stop  offset="1" style="stop-color:#25DEFF"/>
	</linearGradient>
	<path style="fill:url(#SVGID_00000067206609283839904780000008651595943764541356_);" d="M36,51.9c1.6,1.5,3.5,2.4,5.4,2.9
		c3.4,0.9,6.8,0.7,10.3,0.2c3.9-0.6,7.7-1.8,11.3-3.5c1.6-0.8,3.3-1.3,5.1-1.2c0.7,0,1.5,0,1.8,0.8c0.4,0.8-0.2,1.4-0.6,1.9
		c-1.7,2-3.8,3.7-5.9,5.3c-2.9,2.1-5.9,4-9.2,5.3c-2.8,1.1-5.7,1.2-8.6,0.9c-5-0.5-10-1.6-14.8-3.3c-0.4-0.2-0.9-0.3-1.3-0.5
		c-2.2-1.2-4.4-1.1-6.7-0.5c-1.8,0.5-3.5,1.2-5.3,1.8c-0.3,0.1-0.6,0.2-0.9,0.4c0-5.7,0-11.3,0-17c1.5-0.2,2.9-0.6,4.4-0.7
		c9.7-1.1,18.9,0.6,28,3.8c0.9,0.3,1.7,0.9,2.6,1.3c0.3,0.2,0.6,0.5,0.9,0.8c0.6,0.8,0.4,1.5-0.6,1.6c-1.2,0.2-2.4,0.3-3.6,0.2
		c-3.8-0.1-7.6-0.3-11.4-0.5C36.6,51.9,36.4,51.9,36,51.9z"/>
	
		<linearGradient id="SVGID_00000080917205157060028740000017213408468987267212_" gradientUnits="userSpaceOnUse" x1="24.4246" y1="23.5252" x2="60.4461" y2="23.5252">
		<stop  offset="0" style="stop-color:#006382"/>
		<stop  offset="1" style="stop-color:#00ADDC"/>
	</linearGradient>
	<path style="fill:url(#SVGID_00000080917205157060028740000017213408468987267212_);" d="M24.4,27.1c1.8-2,3.5-3.9,5.2-5.9
		c2.7,2.4,5.3,4.7,8,7.1c5.5-7.1,11-14.1,16.5-21.2c2.1,1.6,4.1,3.2,6.2,4.9C53.2,21.3,46,30.6,38.7,39.9
		C33.9,35.6,29.2,31.4,24.4,27.1z"/>
</g>
</svg>
